<?xml version="1.0" standalone="no"?>
<!DOCTYPE svg PUBLIC "-//W3C//DTD SVG 20010904//EN"
 "http://www.w3.org/TR/2001/REC-SVG-20010904/DTD/svg10.dtd">
<svg version="1.0" xmlns="http://www.w3.org/2000/svg"
 width="286.000000pt" height="286.000000pt" viewBox="0 0 286.000000 286.000000"
 preserveAspectRatio="xMidYMid meet">
<metadata>
Created by potrace 1.14, written by Peter Selinger 2001-2017
</metadata>
<g transform="translate(0.000000,286.000000) scale(0.100000,-0.100000)"
fill="#000000" stroke="none">
<path d="M1289 2856 c-2 -2 -24 -6 -49 -10 -25 -3 -57 -8 -72 -11 -16 -3 -38
-7 -50 -9 -122 -23 -342 -114 -453 -188 -240 -158 -421 -365 -531 -604 -93
-205 -134 -402 -129 -629 4 -171 7 -192 41 -330 103 -408 394 -760 774 -937
96 -45 238 -93 315 -107 33 -6 71 -14 85 -17 14 -3 93 -7 175 -9 249 -6 441
34 660 141 77 37 209 116 225 134 3 3 23 18 45 35 87 65 215 204 293 320 92
137 179 338 208 485 38 187 40 438 4 595 -11 50 -23 100 -25 113 -5 20 -20 63
-45 127 -105 273 -347 560 -586 696 -166 94 -347 164 -474 183 -19 3 -46 8
-60 12 -27 6 -345 15 -351 10z"/>
</g>
</svg>
